<svg xmlns="http://www.w3.org/2000/svg" width="234" height="16" viewBox="0 0 234 16" fill="none">
  <path d="M233.881 0.690674H228.979V15.5142H233.881V0.690674Z" fill="#202024"/>
  <path d="M225.864 0.690674H221.11V15.5142H225.864V0.690674Z" fill="#202024"/>
  <path d="M217.847 0.690674H213.242V15.5142H217.847V0.690674Z" fill="#202024"/>
  <path d="M209.831 0.690674H205.372V15.5142H209.831V0.690674Z" fill="#202024"/>
  <path d="M201.81 0.690674H197.501V15.5142H201.81V0.690674Z" fill="#202024"/>
  <path d="M193.797 0.690674H189.634V15.5142H193.797V0.690674Z" fill="#202024"/>
  <path d="M185.777 0.690674H181.763V15.5142H185.777V0.690674Z" fill="#202024"/>
  <path d="M177.76 0.690674H173.893V15.5142H177.76V0.690674Z" fill="#202024"/>
  <path d="M169.74 0.690674H166.023V15.5142H169.74V0.690674Z" fill="#202024"/>
  <path d="M161.727 0.690674H158.156V15.5142H161.727V0.690674Z" fill="#202024"/>
  <path d="M153.707 0.690674H150.285V15.5142H153.707V0.690674Z" fill="#202024"/>
  <path d="M145.69 0.690674H142.415V15.5142H145.69V0.690674Z" fill="#202024"/>
  <path d="M137.673 0.690674H134.548V15.5142H137.673V0.690674Z" fill="#202024"/>
  <path d="M129.656 0.690674H126.677V15.5142H129.656V0.690674Z" fill="#202024"/>
  <path d="M121.636 0.690674H118.807V15.5142H121.636V0.690674Z" fill="#202024"/>
  <path d="M113.623 0.690674H110.939V15.5142H113.623V0.690674Z" fill="#202024"/>
  <path d="M105.603 0.690674H103.069V15.5142H105.603V0.690674Z" fill="#202024"/>
  <path d="M97.5857 0.690674H95.1985V15.5142H97.5857V0.690674Z" fill="#202024"/>
  <path d="M89.5723 0.690674H87.3314V15.5142H89.5723V0.690674Z" fill="#202024"/>
  <path d="M81.5517 0.690674H79.4606V15.5142H81.5517V0.690674Z" fill="#202024"/>
  <path d="M73.5357 0.690674H71.5908V15.5142H73.5357V0.690674Z" fill="#202024"/>
  <path d="M65.5185 0.690674H63.7233V15.5142H65.5185V0.690674Z" fill="#202024"/>
  <path d="M57.5018 0.690674H55.8529V15.5142H57.5018V0.690674Z" fill="#202024"/>
  <path d="M49.482 0.690674H47.9827V15.5142H49.482V0.690674Z" fill="#202024"/>
  <path d="M41.4684 0.690674H40.1155V15.5142H41.4684V0.690674Z" fill="#202024"/>
  <path d="M33.4481 0.690674H32.2448V15.5142H33.4481V0.690674Z" fill="#202024"/>
  <path d="M25.4315 0.690674H24.3745V15.5142H25.4315V0.690674Z" fill="#202024"/>
  <path d="M17.4147 0.690674H16.5073V15.5142H17.4147V0.690674Z" fill="#202024"/>
  <path d="M9.39814 0.690674H8.63708V15.5142H9.39814V0.690674Z" fill="#202024"/>
  <path d="M1.37786 0.690674H0.766479V15.5142H1.37786V0.690674Z" fill="#202024"/>
</svg>